<svg width="59" height="58" viewBox="0 0 59 58" fill="none" xmlns="http://www.w3.org/2000/svg">
<path fill-rule="evenodd" clip-rule="evenodd" d="M46.8126 46.2308C48.2324 44.0649 48.7618 42.9579 49.8448 40.5274C41.8552 37.4952 40.5798 26.1124 48.4731 21.7567C46.0666 18.7245 42.6734 16.9678 39.4728 16.9678C37.1625 16.9678 35.5742 17.5694 34.1544 18.1229C32.9512 18.5802 31.8682 18.9892 30.5206 18.9892C29.0767 18.9892 27.8013 18.532 26.4536 18.0507C24.9857 17.5213 23.4455 16.9678 21.5203 16.9678C17.9346 16.9678 14.1083 19.1577 11.6777 22.9118C8.26052 28.2061 8.86215 38.1209 14.373 46.5917C16.3464 49.6239 18.9935 53.0171 22.4348 53.0652C23.8787 53.0893 24.8172 52.6561 25.852 52.1989C27.0312 51.6695 28.3066 51.0919 30.5447 51.0919C32.7827 51.0678 34.0341 51.6695 35.2133 52.1989C36.224 52.6561 37.1385 53.0893 38.5583 53.0652C42.0477 53.0171 44.8392 49.2629 46.8126 46.2308Z" fill="white"/>
<path fill-rule="evenodd" clip-rule="evenodd" d="M38.9689 4.93555C39.3539 7.58269 38.271 10.2058 36.8512 12.0347C35.3351 14.0081 32.6879 15.5482 30.137 15.4519C29.6798 12.901 30.859 10.2779 32.3029 8.5212C33.9152 6.596 36.6346 5.104 38.9689 4.93555Z" fill="white"/>
</svg>
