<svg width="30" height="30" viewBox="0 0 30 30" fill="none" xmlns="http://www.w3.org/2000/svg">
<path fill-rule="evenodd" clip-rule="evenodd" d="M23.4057 23.6094C24.1237 22.514 24.3915 21.9541 24.9392 20.7249C20.8985 19.1913 20.2534 13.4345 24.2455 11.2316C23.0284 9.69803 21.3123 8.80957 19.6935 8.80957C18.5251 8.80957 17.7219 9.11386 17.0038 9.39379C16.3952 9.62503 15.8476 9.83192 15.166 9.83192C14.4357 9.83192 13.7907 9.60069 13.1091 9.35727C12.3667 9.08952 11.5877 8.80957 10.6141 8.80957C8.80061 8.80957 6.86545 9.91712 5.63619 11.8158C3.90793 14.4934 4.2122 19.5078 6.99933 23.7919C7.99734 25.3254 9.33614 27.0415 11.0766 27.0659C11.8068 27.078 12.2815 26.859 12.8048 26.6277C13.4012 26.36 14.0463 26.0679 15.1781 26.0679C16.31 26.0557 16.9429 26.36 17.5393 26.6277C18.0505 26.859 18.513 27.078 19.231 27.0659C20.9958 27.0415 22.4076 25.1429 23.4057 23.6094Z" fill="black"/>
<path fill-rule="evenodd" clip-rule="evenodd" d="M19.4372 2.72461C19.6319 4.0634 19.0842 5.39004 18.3661 6.31503C17.5994 7.31304 16.2606 8.09196 14.9705 8.04327C14.7392 6.75316 15.3356 5.42653 16.0658 4.53806C16.8813 3.56439 18.2566 2.80981 19.4372 2.72461Z" fill="black"/>
</svg>
