<svg width="30" height="31" viewBox="0 0 30 31" fill="none" xmlns="http://www.w3.org/2000/svg">
<g clip-path="url(#clip0_2695_7419)">
<path d="M14.9558 30.2882C14.515 30.268 14.0332 30.2634 13.5548 30.22C12.7759 30.164 12.0045 30.03 11.2523 29.8201C10.8203 29.691 10.3852 29.5705 9.95902 29.4243C9.48219 29.2544 9.01529 29.0578 8.56053 28.8355C7.75773 28.4501 6.99083 27.9941 6.26891 27.4727C5.79273 27.1304 5.33924 26.7576 4.91132 26.3566C4.30334 25.8021 3.74043 25.2002 3.22791 24.5565C2.78803 24.0007 2.3899 23.4131 2.03679 22.7984C1.80637 22.3903 1.58474 21.9787 1.39167 21.5521C1.1519 21.0403 0.94478 20.5138 0.771543 19.9759C0.724434 19.8228 0.670158 19.672 0.62178 19.5193C0.480729 19.0641 0.368343 18.6005 0.285285 18.1312C0.16557 17.4497 0.0855217 16.7619 0.0455451 16.0712C-0.00205683 15.4231 -0.0115376 14.7727 0.0171517 14.1234C0.0408594 13.6646 0.0916077 13.207 0.138633 12.7497C0.165366 12.4899 0.205683 12.2313 0.246014 11.9731C0.268801 11.8274 0.298366 11.6822 0.334946 11.5393C0.437446 11.1391 0.531984 10.7361 0.654664 10.3419C0.771041 9.96793 0.910623 9.60051 1.05491 9.23613C1.38871 8.41504 1.79741 7.62643 2.27581 6.88027C2.87838 5.93803 3.58329 5.06531 4.37768 4.27801C4.80491 3.86435 5.25522 3.47522 5.72644 3.11248C6.25299 2.71121 6.80222 2.34061 7.37142 2.00254C8.06705 1.58715 8.79966 1.23708 9.55987 0.956833C10.0862 0.762387 10.6232 0.598398 11.1683 0.46568C11.9355 0.281129 12.715 0.151653 13.5007 0.0782412C13.8279 0.0459291 14.1582 0.0455245 14.4858 0.016657C14.7802 -0.00682968 15.076 -0.00472512 15.37 0.0229467C15.6263 0.0447298 15.8846 0.0424706 16.1409 0.0640585C16.439 0.0891607 16.7371 0.12104 17.0331 0.163854C17.4004 0.216959 17.7666 0.279115 18.1315 0.346751C18.6131 0.433919 19.0873 0.558178 19.5498 0.718417C19.9197 0.848265 20.2912 0.974656 20.6559 1.11814C21.1278 1.30177 21.5862 1.5183 22.0277 1.76613C22.4494 2.00481 22.8728 2.24279 23.277 2.50896C23.6461 2.75193 23.9971 3.02387 24.3443 3.29806C24.8972 3.74144 25.4165 4.22523 25.8978 4.74544C26.2351 5.10552 26.5523 5.48386 26.8481 5.87873C27.179 6.32106 27.4856 6.78115 27.7663 7.25694C27.8845 7.45637 27.9986 7.65831 28.1143 7.85923C28.125 7.87742 28.1348 7.89616 28.1435 7.91538C28.1937 8.02893 28.1825 8.07993 28.0689 8.12774C27.9099 8.19457 27.7449 8.24732 27.5823 8.30567C26.9393 8.53645 26.2962 8.76701 25.653 8.99738C24.8388 9.28752 24.0243 9.57669 23.2093 9.86488C22.7206 10.0387 22.2326 10.2145 21.744 10.3886C21.2831 10.5529 20.8215 10.7152 20.3608 10.8803C19.8011 11.0808 19.2426 11.2848 18.6827 11.4847C17.9679 11.7399 17.2519 11.9917 16.537 12.2466C16.0682 12.4138 15.601 12.5852 15.1323 12.7527C14.31 13.0465 13.4875 13.3395 12.6648 13.6318C12.5208 13.6817 12.3682 13.702 12.2162 13.6915C12.1548 13.6885 12.0945 13.6734 12.0389 13.6471C11.9834 13.6207 11.9336 13.5836 11.8924 13.5379C11.7725 13.408 11.6606 13.2706 11.5409 13.1405C11.3564 12.9373 11.1439 12.7615 10.9097 12.6184C10.4916 12.3628 9.99844 12.2584 9.51265 12.3227C9.0015 12.3911 8.52307 12.6128 8.14038 12.9585C7.7577 13.3042 7.48873 13.7577 7.36891 14.2593C7.2636 14.7319 7.29747 15.225 7.46644 15.6788C7.63541 16.1326 7.93222 16.5278 8.321 16.8165C8.77368 17.1734 9.34578 17.3436 9.91995 17.2922C10.2867 17.2614 10.6427 17.1524 10.9638 16.9725C11.2849 16.7926 11.5637 16.546 11.7814 16.2493C11.8305 16.1863 11.8856 16.1278 11.9401 16.0694C11.9924 16.0136 12.0571 15.971 12.129 15.9451C12.2009 15.9192 12.278 15.9107 12.3538 15.9204C12.4673 15.9296 12.5791 15.9534 12.6865 15.9912C13.178 16.1695 13.6668 16.3556 14.1566 16.5386C14.6465 16.7216 15.1368 16.904 15.6267 17.0873C16.2944 17.3371 16.962 17.5871 17.6296 17.8372C18.0919 18.0093 18.5562 18.1761 19.0179 18.3496C19.3811 18.486 19.7409 18.6312 20.1037 18.7688C20.9634 19.0949 21.8235 19.4201 22.684 19.7441C23.2125 19.9445 23.7397 20.1484 24.2679 20.3494C24.6423 20.4918 25.0183 20.6302 25.3923 20.7737C25.6796 20.884 25.9645 21.0006 26.2512 21.1125C26.7462 21.3059 27.2415 21.4984 27.7371 21.6903C27.8551 21.7361 27.9743 21.7789 28.0908 21.828C28.2233 21.8838 28.2449 21.9396 28.1761 22.0631C28.0284 22.3284 27.887 22.5981 27.7233 22.8533C27.4501 23.2791 27.1741 23.7043 26.8761 24.1128C26.3981 24.7615 25.8711 25.3727 25.2997 25.9409C24.6597 26.5838 23.961 27.1654 23.2126 27.6781C22.6045 28.0967 21.967 28.4707 21.3051 28.7974C20.7278 29.0861 20.1314 29.3349 19.5201 29.5421C19.12 29.6747 18.7162 29.7992 18.3077 29.9021C17.9648 29.9885 17.6143 30.0489 17.2643 30.1014C16.8977 30.1564 16.5284 30.198 16.1588 30.2274C15.7723 30.2581 15.3841 30.2675 14.9558 30.2882Z" fill="#0D3A3C"/>
<path d="M30.0005 15.1133C30.0005 16.0249 30.0007 16.9364 30.0012 17.848C29.9933 18.0291 29.961 18.2083 29.9052 18.3807C29.8275 18.6283 29.6996 18.8572 29.5295 19.053C29.3594 19.2489 29.1507 19.4076 28.9164 19.5192C28.5364 19.6655 28.1235 19.7049 27.7227 19.633C27.3914 19.5761 27.0663 19.4875 26.7519 19.3686C26.548 19.2902 26.3333 19.2404 26.1243 19.1751C25.9436 19.1186 25.7645 19.0566 25.5837 19.0002C25.411 18.9462 25.2368 18.8974 25.0639 18.8442C24.8505 18.7786 24.6383 18.7091 24.4248 18.6441C23.9695 18.5054 23.5129 18.3707 23.0581 18.2304C22.6397 18.1013 22.2235 17.9649 21.8052 17.8354C21.5803 17.7658 21.3523 17.706 21.1269 17.6379C20.9619 17.5879 20.7992 17.5302 20.6347 17.4787C20.4783 17.4297 20.3205 17.3854 20.164 17.3369C20.056 17.3034 19.9498 17.2645 19.8418 17.2312C19.7698 17.2089 19.6957 17.1937 19.6232 17.173C19.3321 17.0899 19.0406 17.008 18.7505 16.9215C18.5773 16.8698 18.4071 16.808 18.2343 16.7548C18.0253 16.6906 17.8149 16.6313 17.6054 16.5687C17.4562 16.5241 17.3076 16.4778 17.1587 16.4322C16.9333 16.3631 16.7076 16.2948 16.4825 16.2249C16.0563 16.0926 15.6309 15.9576 15.2041 15.8272C14.9825 15.7595 14.7578 15.702 14.536 15.6348C14.2943 15.5616 14.0546 15.4818 13.8136 15.4063C13.6532 15.3561 13.4898 15.3142 13.3317 15.2576C13.2682 15.2408 13.2097 15.2092 13.1608 15.1654C13.1119 15.1216 13.0741 15.0668 13.0504 15.0056C13.0282 14.946 13.0243 14.8813 13.039 14.8195C13.0537 14.7577 13.0865 14.7017 13.1331 14.6585C13.2438 14.5596 13.3775 14.4901 13.522 14.4562C13.7355 14.3789 13.9555 14.3197 14.1723 14.2514C14.4127 14.1757 14.6532 14.1003 14.8925 14.0212C15.1119 13.9487 15.3294 13.8705 15.5486 13.7973C15.6084 13.7774 15.6725 13.7705 15.7323 13.7508C15.9718 13.6719 16.2099 13.5885 16.4497 13.5104C16.6091 13.4585 16.7711 13.4142 16.9311 13.3638C17.239 13.2668 17.5464 13.1679 17.854 13.0697C18.0535 13.0059 18.2531 12.9422 18.4527 12.8784C18.7454 12.7854 19.0381 12.6926 19.3309 12.6C19.6839 12.4885 20.0378 12.3798 20.3899 12.2655C20.6902 12.1681 20.9882 12.0636 21.288 11.9645C21.3714 11.9369 21.4584 11.9202 21.5422 11.8937C21.8429 11.7985 22.1425 11.7 22.4433 11.6052C22.6636 11.5357 22.8861 11.473 23.106 11.402C23.3862 11.3117 23.6637 11.2129 23.9442 11.1237C24.2324 11.032 24.5234 10.9493 24.8121 10.8592C24.9838 10.8056 25.1527 10.7435 25.324 10.6888C25.5276 10.6237 25.7323 10.5621 25.9367 10.4996C26.1976 10.4198 26.458 10.338 26.7201 10.2621C26.9217 10.2037 27.1254 10.1522 27.3288 10.0999C27.3659 10.0921 27.4039 10.0887 27.4418 10.0898C27.5515 10.0881 27.6614 10.0911 27.771 10.0876C28.0535 10.0837 28.3332 10.1444 28.5887 10.265C28.8845 10.3997 29.1513 10.5909 29.374 10.8276C29.569 11.0391 29.7202 11.287 29.819 11.5571C29.8937 11.7446 29.9466 11.9401 29.9768 12.1397C29.9925 12.2566 29.9996 12.3746 29.9979 12.4926C29.9996 13.3661 29.9999 14.2397 29.9988 15.1133L30.0005 15.1133Z" fill="#F66214"/>
</g>
<defs>
<clipPath id="clip0_2695_7419">
<rect width="30" height="30.2879" fill="white"/>
</clipPath>
</defs>
</svg>
