<svg width="399" height="54" viewBox="0 0 399 54" fill="none" xmlns="http://www.w3.org/2000/svg">
<g clip-path="url(#clip0_2716_3662)">
<g clip-path="url(#clip1_2716_3662)">
<path d="M26.4492 53.8945C25.6696 53.8585 24.8176 53.8504 23.9717 53.7732C22.5942 53.6735 21.2301 53.4351 19.8998 53.0616C19.1359 52.832 18.3665 52.6174 17.6128 52.3573C16.7696 52.055 15.9439 51.7052 15.1397 51.3096C13.72 50.6239 12.3638 49.8124 11.0872 48.8846C10.2451 48.2755 9.44317 47.6121 8.68642 46.8986C7.61128 45.912 6.61582 44.841 5.70946 43.6956C4.93158 42.7066 4.22753 41.6609 3.60308 40.5673C3.1956 39.8411 2.80368 39.1085 2.46224 38.3494C2.03824 37.4388 1.67196 36.502 1.36561 35.5448C1.2823 35.2724 1.18632 35.0041 1.10076 34.7324C0.851327 33.9223 0.652584 33.0973 0.505704 32.2623C0.293998 31.0497 0.15244 29.8259 0.0817451 28.5968C-0.00243459 27.4435 -0.0192005 26.2861 0.031534 25.1308C0.0734588 24.3144 0.163203 23.5003 0.246362 22.6865C0.293638 22.2242 0.364935 21.764 0.436256 21.3045C0.476554 21.0453 0.528836 20.7869 0.593524 20.5328C0.774787 19.8206 0.941968 19.1034 1.15892 18.402C1.36472 17.7366 1.61156 17.0828 1.86671 16.4344C2.45702 14.9734 3.17975 13.5701 4.02576 12.2424C5.09136 10.5658 6.33792 9.01285 7.74274 7.61193C8.49825 6.87587 9.29457 6.18344 10.1279 5.53799C11.059 4.82395 12.0303 4.16451 13.0369 3.56294C14.267 2.8238 15.5626 2.20089 16.907 1.70221C17.8376 1.35621 18.7873 1.06441 19.7514 0.828253C21.1081 0.499862 22.4865 0.269471 23.8759 0.138842C24.4546 0.0813458 25.0387 0.080626 25.6181 0.0292589C26.1386 -0.0125333 26.6617 -0.00878847 27.1816 0.0404508C27.6348 0.0792118 28.0916 0.0751917 28.5448 0.113605C29.0721 0.158272 29.5992 0.214999 30.1227 0.291181C30.7723 0.385677 31.4198 0.496277 32.0651 0.61663C32.9168 0.771737 33.7554 0.992844 34.5732 1.27797C35.2274 1.50903 35.8844 1.73393 36.5294 1.98925C37.3638 2.316 38.1744 2.70129 38.9552 3.14228C39.7008 3.56698 40.4497 3.99045 41.1645 4.46407C41.8171 4.89642 42.438 5.38031 43.0518 5.8682C44.0296 6.65715 44.9479 7.51801 45.7991 8.44367C46.3955 9.08441 46.9566 9.75762 47.4796 10.4603C48.0649 11.2473 48.6069 12.066 49.1033 12.9127C49.3124 13.2675 49.5141 13.6269 49.7188 13.9844C49.7378 14.0167 49.755 14.0501 49.7704 14.0843C49.8592 14.2863 49.8394 14.3771 49.6385 14.4622C49.3573 14.5811 49.0655 14.6749 48.778 14.7788C47.6408 15.1894 46.5036 15.5997 45.3662 16.0096C43.9264 16.5259 42.4859 17.0404 41.0448 17.5532C40.1806 17.8625 39.3176 18.1753 38.4535 18.4852C37.6384 18.7775 36.8221 19.0663 36.0075 19.36C35.0177 19.7169 34.03 20.0798 33.0399 20.4355C31.7758 20.8897 30.5096 21.3376 29.2454 21.7913C28.4164 22.0888 27.5901 22.3938 26.7613 22.6918C25.3072 23.2145 23.8527 23.736 22.3977 24.2561C22.1431 24.3449 21.8733 24.3811 21.6044 24.3623C21.4958 24.3571 21.3893 24.3302 21.291 24.2833C21.1927 24.2364 21.1046 24.1704 21.0318 24.0891C20.8197 23.8579 20.6219 23.6134 20.4102 23.3818C20.084 23.0203 19.7081 22.7074 19.294 22.4528C18.5546 21.998 17.6825 21.8123 16.8235 21.9267C15.9195 22.0485 15.0735 22.4429 14.3967 23.058C13.72 23.6731 13.2443 24.4801 13.0324 25.3726C12.8462 26.2137 12.9061 27.091 13.2049 27.8986C13.5037 28.7061 14.0286 29.4093 14.7161 29.923C15.5167 30.5581 16.5284 30.8609 17.5437 30.7694C18.1923 30.7147 18.8218 30.5207 19.3896 30.2006C19.9575 29.8805 20.4505 29.4416 20.8356 28.9136C20.9223 28.8015 21.0198 28.6976 21.1162 28.5935C21.2086 28.4942 21.3231 28.4184 21.4503 28.3724C21.5774 28.3263 21.7137 28.3112 21.8477 28.3285C22.0484 28.3448 22.2462 28.3871 22.4361 28.4544C23.3054 28.7718 24.1697 29.1028 25.0359 29.4285C25.9022 29.7541 26.7692 30.0786 27.6355 30.4049C28.8163 30.8493 29.997 31.2941 31.1776 31.7392C31.9951 32.0455 32.8161 32.3422 33.6327 32.6509C34.2749 32.8937 34.9113 33.152 35.5527 33.3969C37.073 33.9772 38.5941 34.5558 40.1158 35.1324C41.0504 35.4889 41.9827 35.8517 42.9167 36.2094C43.5789 36.4628 44.2438 36.7091 44.9052 36.9645C45.4132 37.1607 45.9171 37.3681 46.424 37.5673C47.2994 37.9114 48.1753 38.254 49.0518 38.5954C49.2603 38.6769 49.4711 38.7531 49.6773 38.8404C49.9116 38.9397 49.9497 39.039 49.8281 39.2588C49.5668 39.7308 49.3169 40.2108 49.0273 40.6649C48.5442 41.4225 48.0562 42.1791 47.5292 42.906C46.6839 44.0604 45.7519 45.1479 44.7415 46.1589C43.6097 47.3029 42.374 48.3378 41.0506 49.2502C39.9753 49.9949 38.8479 50.6605 37.6773 51.2418C36.6564 51.7556 35.6018 52.1983 34.5207 52.5669C33.8132 52.8028 33.0991 53.0245 32.3767 53.2076C31.7703 53.3613 31.1505 53.4688 30.5315 53.5622C29.8832 53.66 29.2301 53.734 28.5766 53.7864C27.8931 53.8411 27.2067 53.8577 26.4492 53.8945Z" fill="#0D3A3C"/>
<path d="M53.0532 26.8929C53.0532 28.5149 53.0536 30.1369 53.0545 31.7589C53.0405 32.0811 52.9834 32.4 52.8847 32.7069C52.7474 33.1474 52.5212 33.5546 52.2204 33.9032C51.9195 34.2518 51.5504 34.5341 51.1362 34.7327C50.4641 34.993 49.734 35.063 49.0252 34.9351C48.4393 34.8339 47.8644 34.6764 47.3084 34.4648C46.9479 34.3252 46.5681 34.2366 46.1986 34.1204C45.8789 34.0198 45.5624 33.9096 45.2426 33.8091C44.9372 33.7132 44.6291 33.6263 44.3233 33.5317C43.946 33.4148 43.5708 33.2912 43.1931 33.1755C42.3879 32.9288 41.5806 32.6891 40.7763 32.4394C40.0364 32.2096 39.3004 31.967 38.5606 31.7366C38.1629 31.6127 37.7598 31.5063 37.3612 31.385C37.0693 31.2962 36.7817 31.1935 36.4906 31.1018C36.2141 31.0147 35.935 30.9358 35.6582 30.8494C35.4674 30.7899 35.2795 30.7206 35.0886 30.6613C34.9613 30.6218 34.8302 30.5946 34.702 30.5578C34.1871 30.41 33.6716 30.2643 33.1586 30.1103C32.8523 30.0183 32.5514 29.9083 32.2458 29.8137C31.8763 29.6994 31.5041 29.5939 31.1337 29.4826C30.8698 29.4032 30.607 29.3207 30.3437 29.2396C29.9451 29.1168 29.546 28.9952 29.1479 28.8708C28.3942 28.6354 27.6419 28.3952 26.8872 28.1632C26.4953 28.0427 26.0979 27.9404 25.7057 27.8207C25.2783 27.6905 24.8544 27.5484 24.4282 27.4141C24.1446 27.3248 23.8556 27.2504 23.576 27.1496C23.4638 27.1197 23.3602 27.0634 23.2738 26.9855C23.1873 26.9075 23.1204 26.8101 23.0785 26.7011C23.0394 26.5952 23.0324 26.4799 23.0584 26.37C23.0844 26.26 23.1423 26.1603 23.2247 26.0835C23.4205 25.9076 23.657 25.7839 23.9126 25.7236C24.2901 25.586 24.6791 25.4807 25.0625 25.3592C25.4876 25.2245 25.9129 25.0902 26.3361 24.9496C26.7242 24.8206 27.1088 24.6814 27.4965 24.5512C27.6021 24.5157 27.7154 24.5034 27.8213 24.4683C28.2448 24.328 28.6658 24.1796 29.0898 24.0407C29.3718 23.9483 29.6583 23.8695 29.9412 23.7798C30.4858 23.6071 31.0293 23.4311 31.5732 23.2563C31.9262 23.143 32.2791 23.0295 32.632 22.916C33.1496 22.7505 33.6672 22.5853 34.185 22.4207C34.8093 22.2223 35.4351 22.0288 36.0579 21.8255C36.5889 21.6521 37.1158 21.4661 37.6461 21.2897C37.7935 21.2407 37.9473 21.211 38.0955 21.1638C38.6272 20.9944 39.1571 20.8192 39.689 20.6505C40.0787 20.5269 40.4721 20.4152 40.8609 20.289C41.3564 20.1282 41.8472 19.9524 42.3433 19.7936C42.8529 19.6306 43.3675 19.4833 43.8781 19.323C44.1816 19.2278 44.4804 19.1172 44.7834 19.0198C45.1434 18.904 45.5053 18.7944 45.8667 18.6832C46.3282 18.5412 46.7887 18.3956 47.2521 18.2606C47.6088 18.1567 47.9689 18.065 48.3286 17.972C48.3943 17.9581 48.4614 17.9521 48.5285 17.9539C48.7225 17.951 48.9167 17.9562 49.1105 17.95C49.6102 17.9432 50.1048 18.0512 50.5567 18.2657C51.0798 18.5055 51.5515 18.8456 51.9453 19.2669C52.2901 19.6431 52.5576 20.0842 52.7323 20.5649C52.8644 20.8985 52.958 21.2464 53.0114 21.6015C53.0391 21.8096 53.0516 22.0195 53.0487 22.2295C53.0516 23.7839 53.0522 25.3383 53.0503 26.8928L53.0532 26.8929Z" fill="#F66214"/>
</g>
<path d="M78.8949 47.4713C75.3378 47.4713 72.2838 46.8605 69.7328 45.6388C67.1818 44.3813 65.0979 42.7465 63.4811 40.7345C61.8642 38.6865 60.6606 36.4948 59.8701 34.1593C59.1156 31.788 58.7384 29.4885 58.7384 27.2609V26.0752C58.7384 23.632 59.1336 21.2247 59.924 18.8533C60.7145 16.4461 61.9181 14.2723 63.535 12.3321C65.1877 10.3919 67.2537 8.84695 69.7328 7.69721C72.2479 6.51153 75.2121 5.91869 78.6254 5.91869C82.1824 5.91869 85.3262 6.58339 88.0569 7.91279C90.7875 9.24218 92.9613 11.0926 94.5781 13.4639C96.2309 15.7993 97.201 18.5479 97.4884 21.7097H88.5958C88.3443 20.1288 87.7695 18.7815 86.8712 17.6677C85.973 16.5539 84.8053 15.6915 83.3681 15.0807C81.9668 14.4699 80.3859 14.1645 78.6254 14.1645C76.8648 14.1645 75.3019 14.4699 73.9366 15.0807C72.5712 15.6915 71.4215 16.5539 70.4873 17.6677C69.5891 18.7815 68.8885 20.1109 68.3855 21.6559C67.9184 23.1649 67.6848 24.8536 67.6848 26.7219C67.6848 28.5543 67.9184 30.243 68.3855 31.788C68.8885 33.297 69.6071 34.6264 70.5412 35.7762C71.5113 36.89 72.697 37.7523 74.0983 38.3631C75.4995 38.938 77.0984 39.2254 78.8949 39.2254C81.6255 39.2254 83.925 38.5607 85.7933 37.2313C87.6976 35.9019 88.8473 34.0695 89.2426 31.7341H98.0813C97.7579 34.6085 96.7878 37.2493 95.171 39.6566C93.5901 42.0279 91.4163 43.9322 88.6497 45.3694C85.9191 46.7706 82.6675 47.4713 78.8949 47.4713ZM118.604 46.4473V37.7164H117.149V28.231C117.149 26.7219 116.79 25.5901 116.071 24.8356C115.353 24.0811 114.203 23.7038 112.622 23.7038C111.832 23.7038 110.79 23.7218 109.496 23.7577C108.203 23.7937 106.873 23.8476 105.508 23.9194C104.143 23.9913 102.903 24.0631 101.789 24.135V16.8593C102.616 16.7874 103.586 16.7155 104.7 16.6437C105.814 16.5718 106.963 16.5179 108.149 16.482C109.335 16.4461 110.448 16.4281 111.49 16.4281C114.509 16.4281 117.042 16.8593 119.09 17.7216C121.173 18.5839 122.754 19.8953 123.832 21.6559C124.91 23.3805 125.449 25.6081 125.449 28.3388V46.4473H118.604ZM109.173 47.2018C107.053 47.2018 105.185 46.8245 103.568 46.07C101.987 45.3155 100.747 44.2376 99.8492 42.8363C98.951 41.3992 98.5019 39.6925 98.5019 37.7164C98.5019 35.5606 99.0588 33.8001 100.173 32.4347C101.286 31.0335 102.849 30.0095 104.861 29.3627C106.873 28.6801 109.191 28.3388 111.814 28.3388H118.119V33.1354H111.76C110.251 33.1354 109.083 33.5126 108.257 34.2671C107.466 34.9857 107.071 35.9738 107.071 37.2313C107.071 38.417 107.466 39.3871 108.257 40.1416C109.083 40.8602 110.251 41.2195 111.76 41.2195C112.73 41.2195 113.592 41.0578 114.347 40.7345C115.137 40.3752 115.784 39.7823 116.287 38.9559C116.79 38.1296 117.077 36.9798 117.149 35.5067L119.197 37.6625C119.018 39.7105 118.515 41.4351 117.688 42.8363C116.898 44.2376 115.784 45.3155 114.347 46.07C112.946 46.8245 111.221 47.2018 109.173 47.2018ZM130.071 46.4473V16.9131H136.915V29.6322H136.43C136.43 26.6141 136.807 24.0991 137.562 22.087C138.316 20.075 139.448 18.5659 140.957 17.5599C142.466 16.5179 144.317 15.9969 146.508 15.9969H146.886C149.113 15.9969 150.964 16.5179 152.437 17.5599C153.946 18.5659 155.077 20.075 155.832 22.087C156.622 24.0991 157.018 26.6141 157.018 29.6322H154.916C154.916 26.6141 155.293 24.0991 156.048 22.087C156.838 20.075 157.988 18.5659 159.497 17.5599C161.006 16.5179 162.856 15.9969 165.048 15.9969H165.425C167.653 15.9969 169.521 16.5179 171.03 17.5599C172.575 18.5659 173.743 20.075 174.533 22.087C175.324 24.0991 175.719 26.6141 175.719 29.6322V46.4473H167.096V29.1472C167.096 27.5303 166.665 26.2189 165.802 25.2129C164.976 24.2069 163.79 23.7038 162.245 23.7038C160.7 23.7038 159.479 24.2248 158.581 25.2668C157.682 26.2728 157.233 27.6202 157.233 29.3089V46.4473H148.556V29.1472C148.556 27.5303 148.125 26.2189 147.263 25.2129C146.436 24.2069 145.269 23.7038 143.76 23.7038C142.179 23.7038 140.939 24.2248 140.041 25.2668C139.143 26.2728 138.694 27.6202 138.694 29.3089V46.4473H130.071ZM180.375 57.2261V16.9131H187.22V29.6861L186.304 29.6322C186.448 26.686 187.058 24.2069 188.136 22.1948C189.214 20.1468 190.669 18.6198 192.502 17.6138C194.334 16.5718 196.4 16.0508 198.7 16.0508C200.748 16.0508 202.598 16.4281 204.251 17.1826C205.939 17.9371 207.377 18.9971 208.562 20.3624C209.784 21.6918 210.7 23.2727 211.311 25.1051C211.958 26.9016 212.281 28.8777 212.281 31.0335V32.273C212.281 34.3929 211.976 36.387 211.365 38.2553C210.754 40.0877 209.856 41.6866 208.67 43.0519C207.52 44.4172 206.101 45.4951 204.412 46.2856C202.76 47.0401 200.855 47.4174 198.7 47.4174C196.472 47.4174 194.46 46.9682 192.663 46.07C190.903 45.1358 189.484 43.7346 188.406 41.8662C187.328 39.962 186.735 37.5547 186.627 34.6444L188.999 37.8781V57.2261H180.375ZM196.274 40.1955C197.747 40.1955 199.023 39.8362 200.101 39.1176C201.215 38.399 202.077 37.393 202.688 36.0995C203.299 34.8061 203.604 33.315 203.604 31.6263C203.604 29.9376 203.299 28.4645 202.688 27.207C202.077 25.9494 201.233 24.9793 200.155 24.2967C199.077 23.5781 197.783 23.2188 196.274 23.2188C194.981 23.2188 193.759 23.5242 192.609 24.135C191.46 24.7458 190.526 25.6261 189.807 26.7758C189.124 27.8896 188.783 29.255 188.783 30.8718V32.8659C188.783 34.4109 189.142 35.7402 189.861 36.8541C190.615 37.932 191.568 38.7583 192.717 39.3332C193.867 39.9081 195.053 40.1955 196.274 40.1955ZM225.546 47.3635C222.132 47.3635 219.509 46.2676 217.677 44.0759C215.845 41.8483 214.928 38.5068 214.928 34.0516V16.9131H223.552V34.4827C223.552 36.0636 224.001 37.3212 224.899 38.2553C225.797 39.1895 227.001 39.6566 228.51 39.6566C230.055 39.6566 231.312 39.1715 232.282 38.2014C233.253 37.2313 233.738 35.9199 233.738 34.2671V16.9131H242.361V46.4473H235.516V33.9977H236.109C236.109 36.9798 235.714 39.4769 234.923 41.489C234.169 43.4651 233.037 44.9382 231.528 45.9083C230.019 46.8784 228.151 47.3635 225.923 47.3635H225.546ZM258.827 47.3635C254.623 47.3635 251.336 46.5012 248.964 44.7765C246.593 43.0519 245.336 40.6267 245.192 37.5008H252.845C252.989 38.435 253.545 39.2793 254.516 40.0338C255.522 40.7524 257.013 41.1117 258.989 41.1117C260.498 41.1117 261.737 40.8602 262.708 40.3572C263.714 39.8183 264.217 39.0637 264.217 38.0936C264.217 37.2313 263.839 36.5487 263.085 36.0457C262.33 35.5067 260.983 35.1294 259.043 34.9139L256.725 34.6983C253.168 34.339 250.491 33.3509 248.695 31.7341C246.934 30.1173 246.054 28.0513 246.054 25.5362C246.054 23.4523 246.575 21.7097 247.617 20.3085C248.659 18.9072 250.096 17.8473 251.929 17.1287C253.797 16.4101 255.917 16.0508 258.288 16.0508C262.097 16.0508 265.169 16.8952 267.504 18.5839C269.84 20.2366 271.061 22.6439 271.169 25.8057H263.516C263.372 24.8356 262.869 24.0272 262.007 23.3805C261.145 22.6978 259.869 22.3565 258.18 22.3565C256.851 22.3565 255.791 22.608 255.001 23.111C254.21 23.614 253.815 24.2967 253.815 25.159C253.815 25.9854 254.156 26.6141 254.839 27.0453C255.522 27.4764 256.635 27.7818 258.18 27.9615L260.498 28.1771C264.127 28.5723 266.947 29.5783 268.959 31.1952C270.971 32.812 271.977 34.9857 271.977 37.7164C271.977 39.6925 271.438 41.4171 270.361 42.8902C269.283 44.3274 267.756 45.4412 265.779 46.2317C263.803 46.9862 261.486 47.3635 258.827 47.3635ZM287.05 47.4174C284.966 47.4174 283.061 47.0401 281.337 46.2856C279.648 45.5311 278.175 44.4891 276.918 43.1597C275.66 41.7944 274.69 40.1955 274.007 38.3631C273.36 36.5307 273.037 34.5546 273.037 32.4347V31.1952C273.037 29.0753 273.343 27.0992 273.953 25.2668C274.6 23.4344 275.516 21.8355 276.702 20.4702C277.924 19.0689 279.379 17.991 281.067 17.2365C282.756 16.4461 284.642 16.0508 286.726 16.0508C289.098 16.0508 291.146 16.5718 292.87 17.6138C294.595 18.6198 295.942 20.1288 296.912 22.1409C297.882 24.117 298.421 26.5602 298.529 29.4705L296.266 27.3687V7.10437H304.943V46.4473H298.098V34.2132H299.284C299.176 37.0157 298.583 39.4051 297.505 41.3812C296.463 43.3573 295.044 44.8664 293.248 45.9083C291.451 46.9144 289.385 47.4174 287.05 47.4174ZM289.205 40.1955C290.535 40.1955 291.738 39.9081 292.816 39.3332C293.93 38.7224 294.81 37.8421 295.457 36.6924C296.14 35.5426 296.481 34.1593 296.481 32.5425V30.5484C296.481 28.9675 296.14 27.6381 295.457 26.5602C294.775 25.4824 293.876 24.656 292.762 24.0811C291.649 23.5062 290.445 23.2188 289.152 23.2188C287.714 23.2188 286.421 23.596 285.271 24.3506C284.157 25.0692 283.277 26.0752 282.63 27.3687C281.984 28.6262 281.66 30.0993 281.66 31.788C281.66 33.5126 281.984 35.0037 282.63 36.2612C283.277 37.5188 284.175 38.4889 285.325 39.1715C286.475 39.8542 287.768 40.1955 289.205 40.1955ZM327.908 46.4473V37.7164H326.453V28.231C326.453 26.7219 326.094 25.5901 325.375 24.8356C324.657 24.0811 323.507 23.7038 321.926 23.7038C321.136 23.7038 320.094 23.7218 318.8 23.7577C317.507 23.7937 316.177 23.8476 314.812 23.9194C313.447 23.9913 312.207 24.0631 311.093 24.135V16.8593C311.92 16.7874 312.89 16.7155 314.004 16.6437C315.117 16.5718 316.267 16.5179 317.453 16.482C318.639 16.4461 319.752 16.4281 320.794 16.4281C323.812 16.4281 326.345 16.8593 328.393 17.7216C330.477 18.5839 332.058 19.8953 333.136 21.6559C334.214 23.3805 334.753 25.6081 334.753 28.3388V46.4473H327.908ZM318.477 47.2018C316.357 47.2018 314.489 46.8245 312.872 46.07C311.291 45.3155 310.051 44.2376 309.153 42.8363C308.255 41.3992 307.806 39.6925 307.806 37.7164C307.806 35.5606 308.363 33.8001 309.476 32.4347C310.59 31.0335 312.153 30.0095 314.165 29.3627C316.177 28.6801 318.495 28.3388 321.118 28.3388H327.423V33.1354H321.064C319.555 33.1354 318.387 33.5126 317.561 34.2671C316.77 34.9857 316.375 35.9738 316.375 37.2313C316.375 38.417 316.77 39.3871 317.561 40.1416C318.387 40.8602 319.555 41.2195 321.064 41.2195C322.034 41.2195 322.896 41.0578 323.651 40.7345C324.441 40.3752 325.088 39.7823 325.591 38.9559C326.094 38.1296 326.381 36.9798 326.453 35.5067L328.501 37.6625C328.322 39.7105 327.819 41.4351 326.992 42.8363C326.202 44.2376 325.088 45.3155 323.651 46.07C322.249 46.8245 320.525 47.2018 318.477 47.2018ZM350.584 47.3635C346.381 47.3635 343.093 46.5012 340.722 44.7765C338.35 43.0519 337.093 40.6267 336.949 37.5008H344.602C344.746 38.435 345.303 39.2793 346.273 40.0338C347.279 40.7524 348.77 41.1117 350.746 41.1117C352.255 41.1117 353.495 40.8602 354.465 40.3572C355.471 39.8183 355.974 39.0637 355.974 38.0936C355.974 37.2313 355.597 36.5487 354.842 36.0457C354.088 35.5067 352.74 35.1294 350.8 34.9139L348.483 34.6983C344.925 34.339 342.249 33.3509 340.452 31.7341C338.692 30.1173 337.811 28.0513 337.811 25.5362C337.811 23.4523 338.332 21.7097 339.374 20.3085C340.416 18.9072 341.853 17.8473 343.686 17.1287C345.554 16.4101 347.674 16.0508 350.045 16.0508C353.854 16.0508 356.926 16.8952 359.261 18.5839C361.597 20.2366 362.818 22.6439 362.926 25.8057H355.273C355.129 24.8356 354.626 24.0272 353.764 23.3805C352.902 22.6978 351.626 22.3565 349.938 22.3565C348.608 22.3565 347.548 22.608 346.758 23.111C345.967 23.614 345.572 24.2967 345.572 25.159C345.572 25.9854 345.914 26.6141 346.596 27.0453C347.279 27.4764 348.393 27.7818 349.938 27.9615L352.255 28.1771C355.884 28.5723 358.704 29.5783 360.717 31.1952C362.729 32.812 363.735 34.9857 363.735 37.7164C363.735 39.6925 363.196 41.4171 362.118 42.8902C361.04 44.3274 359.513 45.4412 357.537 46.2317C355.561 46.9862 353.243 47.3635 350.584 47.3635ZM366.627 46.4473V7.10437H375.25V29.7939H373.956C373.956 26.8117 374.334 24.2967 375.088 22.2487C375.843 20.2007 376.957 18.6557 378.43 17.6138C379.903 16.5359 381.753 15.9969 383.981 15.9969H384.358C387.628 15.9969 390.125 17.1647 391.849 19.5001C393.574 21.7996 394.436 25.177 394.436 29.6322V46.4473H385.813V29.0933C385.813 27.4764 385.328 26.183 384.358 25.2129C383.424 24.2069 382.184 23.7038 380.639 23.7038C379.023 23.7038 377.711 24.2248 376.705 25.2668C375.735 26.3087 375.25 27.692 375.25 29.4166V46.4473H366.627Z" fill="white"/>
</g>
<defs>
<clipPath id="clip0_2716_3662">
<rect width="398.421" height="53.8944" fill="white"/>
</clipPath>
<clipPath id="clip1_2716_3662">
<rect width="53.0523" height="53.8944" fill="white"/>
</clipPath>
</defs>
</svg>
