<svg width="50" height="50" viewBox="0 0 50 50" fill="none" xmlns="http://www.w3.org/2000/svg">
<path d="M41.6029 20.833H8.26953V37.4997C8.26953 43.7497 10.3529 45.833 16.6029 45.833H33.2695C39.5195 45.833 41.6029 43.7497 41.6029 37.4997V20.833Z" stroke="#0D3A3C" stroke-width="3.125" stroke-miterlimit="10" stroke-linecap="round" stroke-linejoin="round"/>
<path d="M44.7923 14.5837V16.667C44.7923 18.9587 43.6881 20.8337 40.6256 20.8337H9.37565C6.18815 20.8337 5.20898 18.9587 5.20898 16.667V14.5837C5.20898 12.292 6.18815 10.417 9.37565 10.417H40.6256C43.6881 10.417 44.7923 12.292 44.7923 14.5837Z" stroke="#0D3A3C" stroke-width="3.125" stroke-miterlimit="10" stroke-linecap="round" stroke-linejoin="round"/>
<path d="M24.2504 10.4176H12.7504C12.0421 9.64681 12.0629 8.45931 12.8129 7.70931L15.7713 4.75098C16.5421 3.98014 17.8129 3.98014 18.5838 4.75098L24.2504 10.4176Z" stroke="#0D3A3C" stroke-width="3.125" stroke-miterlimit="10" stroke-linecap="round" stroke-linejoin="round"/>
<path d="M37.2285 10.4176H25.7285L31.3952 4.75098C32.166 3.98014 33.4368 3.98014 34.2077 4.75098L37.166 7.70931C37.916 8.45931 37.9368 9.64681 37.2285 10.4176Z" stroke="#0D3A3C" stroke-width="3.125" stroke-miterlimit="10" stroke-linecap="round" stroke-linejoin="round"/>
<path d="M18.625 20.833V31.5413C18.625 33.208 20.4583 34.1872 21.8542 33.2913L23.8125 31.9997C24.5208 31.5413 25.4167 31.5413 26.1042 31.9997L27.9583 33.2497C29.3333 34.1663 31.1875 33.1872 31.1875 31.5205V20.833H18.625Z" stroke="#0D3A3C" stroke-width="3.125" stroke-miterlimit="10" stroke-linecap="round" stroke-linejoin="round"/>
</svg>
