<svg width="50" height="50" viewBox="0 0 50 50" fill="none" xmlns="http://www.w3.org/2000/svg">
<path d="M37.5 14.9165C37.375 14.8957 37.2292 14.8957 37.1042 14.9165C34.2292 14.8123 31.9375 12.4582 31.9375 9.54151C31.9375 6.56234 34.3333 4.1665 37.3125 4.1665C40.2917 4.1665 42.6875 6.58317 42.6875 9.54151C42.6667 12.4582 40.375 14.8123 37.5 14.9165Z" stroke="#0D3A3C" stroke-width="3.125" stroke-linecap="round" stroke-linejoin="round"/>
<path d="M35.3555 30.0835C38.2096 30.5627 41.3555 30.0627 43.5638 28.5835C46.5013 26.6252 46.5013 23.4168 43.5638 21.4585C41.3346 19.9793 38.1471 19.4793 35.293 19.9793" stroke="#0D3A3C" stroke-width="3.125" stroke-linecap="round" stroke-linejoin="round"/>
<path d="M12.4375 14.9165C12.5625 14.8957 12.7083 14.8957 12.8333 14.9165C15.7083 14.8123 18 12.4582 18 9.54151C18 6.56234 15.6042 4.1665 12.625 4.1665C9.64584 4.1665 7.25 6.58317 7.25 9.54151C7.27083 12.4582 9.5625 14.8123 12.4375 14.9165Z" stroke="#0D3A3C" stroke-width="3.125" stroke-linecap="round" stroke-linejoin="round"/>
<path d="M14.5833 30.0835C11.7292 30.5627 8.58333 30.0627 6.375 28.5835C3.4375 26.6252 3.4375 23.4168 6.375 21.4585C8.60417 19.9793 11.7917 19.4793 14.6458 19.9793" stroke="#0D3A3C" stroke-width="3.125" stroke-linecap="round" stroke-linejoin="round"/>
<path d="M25 30.4795C24.875 30.4587 24.7292 30.4587 24.6042 30.4795C21.7292 30.3753 19.4375 28.0212 19.4375 25.1045C19.4375 22.1253 21.8333 19.7295 24.8125 19.7295C27.7917 19.7295 30.1875 22.1462 30.1875 25.1045C30.1667 28.0212 27.875 30.3962 25 30.4795Z" stroke="#0D3A3C" stroke-width="3.125" stroke-linecap="round" stroke-linejoin="round"/>
<path d="M18.9375 37.0425C16 39.0008 16 42.2091 18.9375 44.1675C22.2708 46.3966 27.7292 46.3966 31.0625 44.1675C34 42.2091 34 39.0008 31.0625 37.0425C27.75 34.8341 22.2708 34.8341 18.9375 37.0425Z" stroke="#0D3A3C" stroke-width="3.125" stroke-linecap="round" stroke-linejoin="round"/>
</svg>
