<svg width="50" height="50" viewBox="0 0 50 50" fill="none" xmlns="http://www.w3.org/2000/svg">
<path d="M22.3998 35.126V39.3552C22.3998 42.9385 19.0664 45.8343 14.9623 45.8343C10.8581 45.8343 7.50391 42.9385 7.50391 39.3552V35.126C7.50391 38.7093 10.8373 41.251 14.9623 41.251C19.0664 41.251 22.3998 38.6885 22.3998 35.126Z" stroke="#0D3A3C" stroke-width="3.125" stroke-linecap="round" stroke-linejoin="round"/>
<path d="M22.3951 29.3958C22.3951 30.4374 22.1034 31.3958 21.6034 32.2291C20.3743 34.2499 17.8534 35.5208 14.9368 35.5208C12.0201 35.5208 9.49923 34.2291 8.27007 32.2291C7.77007 31.3958 7.47852 30.4374 7.47852 29.3958C7.47852 27.6041 8.3118 25.9999 9.64514 24.8333C10.9993 23.6458 12.8534 22.9375 14.9159 22.9375C16.9784 22.9375 18.8326 23.6666 20.1868 24.8333C21.5618 25.9791 22.3951 27.6041 22.3951 29.3958Z" stroke="#0D3A3C" stroke-width="3.125" stroke-linecap="round" stroke-linejoin="round"/>
<path d="M22.3998 29.3961V35.1253C22.3998 38.7086 19.0664 41.2503 14.9623 41.2503C10.8581 41.2503 7.50391 38.6878 7.50391 35.1253V29.3961C7.50391 25.8128 10.8373 22.917 14.9623 22.917C17.0248 22.917 18.879 23.6461 20.2332 24.8128C21.5665 25.9794 22.3998 27.6045 22.3998 29.3961Z" stroke="#0D3A3C" stroke-width="3.125" stroke-linecap="round" stroke-linejoin="round"/>
<path d="M45.8341 22.8544V27.1462C45.8341 28.292 44.9174 29.2294 43.7508 29.2711H39.6674C37.4174 29.2711 35.3549 27.6253 35.1674 25.3753C35.0424 24.0628 35.5424 22.8336 36.4174 21.9794C37.1882 21.1878 38.2507 20.7295 39.4174 20.7295H43.7508C44.9174 20.7712 45.8341 21.7086 45.8341 22.8544Z" stroke="#0D3A3C" stroke-width="3.125" stroke-linecap="round" stroke-linejoin="round"/>
<path d="M4.16602 21.8753V17.7087C4.16602 12.042 7.58269 8.08365 12.8952 7.41699C13.4369 7.33365 13.9993 7.29199 14.5827 7.29199H33.3327C33.8743 7.29199 34.3952 7.3128 34.8952 7.39613C40.2702 8.02113 43.7493 12.0003 43.7493 17.7087V20.7295H39.416C38.2493 20.7295 37.1868 21.1878 36.416 21.9795C35.541 22.8336 35.041 24.0628 35.166 25.3753C35.3535 27.6253 37.416 29.2711 39.666 29.2711H43.7493V32.292C43.7493 38.542 39.5827 42.7087 33.3327 42.7087H28.1243" stroke="#0D3A3C" stroke-width="3.125" stroke-linecap="round" stroke-linejoin="round"/>
</svg>
