<svg width="1440" height="2361" viewBox="0 0 1440 2361" fill="none" xmlns="http://www.w3.org/2000/svg">
<g opacity="0.09">
<line y1="1143.36" x2="3810.74" y2="1143.36" stroke="#222020" stroke-width="3.17827"/>
<line y1="1956.99" x2="3810.74" y2="1956.99" stroke="#222020" stroke-width="3.17827"/>
<line y1="329.725" x2="3810.74" y2="329.725" stroke="#222020" stroke-width="3.17827"/>
<line y1="736.539" x2="3810.74" y2="736.539" stroke="#222020" stroke-width="3.17827"/>
<line y1="1550.17" x2="3810.74" y2="1550.17" stroke="#222020" stroke-width="3.17827"/>
<line y1="939.949" x2="3810.74" y2="939.949" stroke="#222020" stroke-width="3.17827"/>
<line y1="1753.58" x2="3810.74" y2="1753.58" stroke="#222020" stroke-width="3.17827"/>
<line y1="126.314" x2="3810.74" y2="126.314" stroke="#222020" stroke-width="3.17827"/>
<line y1="2160.41" x2="3810.74" y2="2160.41" stroke="#222020" stroke-width="3.17827"/>
<line y1="533.129" x2="3810.74" y2="533.129" stroke="#222020" stroke-width="3.17827"/>
<line y1="1346.77" x2="3810.74" y2="1346.77" stroke="#222020" stroke-width="3.17827"/>
<line x1="119.183" y1="-555.424" x2="119.183" y2="2387.65" stroke="#222020" stroke-width="3.17827"/>
<line x1="932.824" y1="-555.424" x2="932.823" y2="2387.65" stroke="#222020" stroke-width="3.17827"/>
<line x1="526.003" y1="-555.424" x2="526.003" y2="2387.65" stroke="#222020" stroke-width="3.17827"/>
<line x1="1339.64" y1="-555.424" x2="1339.64" y2="2387.65" stroke="#222020" stroke-width="3.17827"/>
<line x1="322.599" y1="-555.424" x2="322.599" y2="2387.65" stroke="#222020" stroke-width="3.17827"/>
<line x1="1136.23" y1="-555.424" x2="1136.23" y2="2387.65" stroke="#222020" stroke-width="3.17827"/>
<line x1="729.419" y1="-555.424" x2="729.419" y2="2387.65" stroke="#222020" stroke-width="3.17827"/>
</g>
<g opacity="0.5">
<rect x="1136.38" y="1550.03" width="202.253" height="202.253" fill="#32B76F"/>
<rect x="1338.63" y="738" width="202.253" height="199.364" fill="#0A13DB" fill-opacity="0.15"/>
<rect x="1136.01" y="128.479" width="202.253" height="199.364" fill="#0A13DB" fill-opacity="0.15"/>
<rect x="1136.01" y="738" width="202.253" height="199.364" fill="#0A13DB" fill-opacity="0.15"/>
<rect x="934.125" y="1550.03" width="202.253" height="202.253" fill="#32B76F"/>
<rect x="934.125" y="1752.28" width="202.253" height="205.143" fill="#32B76F"/>
<rect x="526.729" y="1347.78" width="202.253" height="202.253" fill="#32B76F"/>
<rect x="526.729" y="-79.5527" width="205.143" height="208.032" fill="#32B76F"/>
<rect x="321.586" y="-79.5527" width="205.143" height="208.032" fill="#32B76F"/>
<rect x="526.729" y="327.843" width="202.253" height="205.143" fill="#32B76F"/>
</g>
</svg>
