<svg width="1867" height="2361" viewBox="0 0 1867 2361" fill="none" xmlns="http://www.w3.org/2000/svg">
<g clip-path="url(#clip0_3_2)">
<g opacity="0.09">
<path d="M0 1143.36H4940.73" stroke="#222020" stroke-width="3.17827"/>
<path d="M0 1956.99H4940.73" stroke="#222020" stroke-width="3.17827"/>
<path d="M0 329.725H4940.73" stroke="#222020" stroke-width="3.17827"/>
<path d="M0 736.539H4940.73" stroke="#222020" stroke-width="3.17827"/>
<path d="M0 1550.17H4940.73" stroke="#222020" stroke-width="3.17827"/>
<path d="M0 939.949H4940.73" stroke="#222020" stroke-width="3.17827"/>
<path d="M0 1753.58H4940.73" stroke="#222020" stroke-width="3.17827"/>
<path d="M0 126.314H4940.73" stroke="#222020" stroke-width="3.17827"/>
<path d="M0 2160.41H4940.73" stroke="#222020" stroke-width="3.17827"/>
<path d="M0 533.129H4940.73" stroke="#222020" stroke-width="3.17827"/>
<path d="M0 1346.77H4940.73" stroke="#222020" stroke-width="3.17827"/>
<path d="M154.524 -555.424V2387.65" stroke="#222020" stroke-width="3.17827"/>
<path d="M1209.43 -555.424L1209.43 2387.65" stroke="#222020" stroke-width="3.17827"/>
<path d="M681.978 -555.424V2387.65" stroke="#222020" stroke-width="3.17827"/>
<path d="M1736.88 -555.424V2387.65" stroke="#222020" stroke-width="3.17827"/>
<path d="M418.259 -555.424V2387.65" stroke="#222020" stroke-width="3.17827"/>
<path d="M1473.15 -555.424V2387.65" stroke="#222020" stroke-width="3.17827"/>
<path d="M945.712 -555.424V2387.65" stroke="#222020" stroke-width="3.17827"/>
</g>
<g opacity="0.5">
<path d="M1735.57 1550.03H1473.35V1752.28H1735.57V1550.03Z" fill="#1B6F1B"/>
<path d="M1997.8 738H1735.57V937.364H1997.8V738Z" fill="#0A13DB" fill-opacity="0.41"/>
<path d="M1735.1 128.479H1472.87V327.843H1735.1V128.479Z" fill="#0B13C0" fill-opacity="0.41"/>
<path d="M1735.1 738H1472.87V937.364H1735.1V738Z" fill="#0A13DB" fill-opacity="0.41"/>
<path d="M1473.35 1550.03H1211.12V1752.28H1473.35V1550.03Z" fill="#1B6F1B"/>
<path d="M1473.35 1752.28H1211.12V1957.42H1473.35V1752.28Z" fill="#1B6F1B"/>
<path d="M945.145 1347.78H682.919V1550.03H945.145V1347.78Z" fill="#1B6F1B"/>
<path d="M948.892 -79.5527H682.919V128.479H948.892V-79.5527Z" fill="#1B6F1B"/>
<path d="M682.919 -79.5527H416.945V128.479H682.919V-79.5527Z" fill="#1B6F1B"/>
<path d="M945.145 327.843H682.919V532.986H945.145V327.843Z" fill="#1B6F1B"/>
</g>
</g>
<defs>
<clipPath id="clip0_3_2">
<rect width="1867" height="2361" fill="white"/>
</clipPath>
</defs>
</svg>
